<svg xmlns="http://www.w3.org/2000/svg" width="48" height="48" viewBox="0 0 48 48"><title>Excel to LaTeX Table</title><path fill="#1e5c45" fill-rule="evenodd" d="M14.741,7.227Q14.988,7.122 15.358,7.105Q15.728,7.087 16.099,7.210Q16.469,7.332 19.556,7.332Q22.642,7.332 22.889,7.252Q23.136,7.172 23.383,7.252Q23.630,7.332 26.469,7.333Q29.309,7.333 29.802,7.211Q30.296,7.088 30.543,7.168Q30.790,7.248 31.037,7.168Q31.284,7.087 33.506,7.087Q35.728,7.087 36.099,7.210Q36.469,7.332 38.198,7.333Q39.926,7.333 40.420,7.211Q40.914,7.088 41.778,7.352Q42.642,7.616 43.012,7.974Q43.383,8.332 43.691,9.129Q43.999,9.926 43.999,17.086Q43.999,24.247 43.877,24.617Q43.754,24.988 43.877,25.481Q43.999,25.975 43.999,31.901Q43.999,37.827 43.894,38.074Q43.789,38.321 43.753,38.691Q43.717,39.062 43.112,39.679Q42.508,40.296 42.081,40.481Q41.654,40.666 38.938,40.667Q36.222,40.668 35.852,40.790Q35.481,40.913 33.136,40.913Q30.790,40.913 30.543,40.832Q30.296,40.752 30.049,40.832Q29.802,40.913 28.568,40.913Q27.333,40.913 26.840,40.790Q26.346,40.667 25.852,40.685Q25.358,40.703 25.235,40.790Q25.111,40.878 24.864,40.896Q24.617,40.914 22.272,40.913Q19.926,40.913 19.679,40.832Q19.432,40.752 19.185,40.832Q18.938,40.913 14.864,40.913Q10.790,40.913 10.420,40.790Q10.049,40.668 9.062,40.668Q8.074,40.668 7.704,40.790Q7.333,40.912 6.469,40.648Q5.605,40.384 5.235,40.026Q4.864,39.668 4.556,38.995Q4.248,38.321 4.247,35.605Q4.246,32.889 4.123,32.519Q4.001,32.148 4.001,30.914Q4.001,29.679 4.123,29.309Q4.246,28.938 4.264,19.309Q4.283,9.679 4.530,9.185Q4.776,8.691 5.134,8.321Q5.492,7.951 5.796,7.783Q6.099,7.616 6.469,7.580Q6.840,7.544 6.963,7.457Q7.086,7.369 10.790,7.351Q14.494,7.332 14.741,7.227ZM15.481,10.338Q8.321,10.332 7.951,10.462Q7.580,10.591 7.519,10.752Q7.458,10.914 7.457,11.531Q7.456,12.148 7.333,12.519Q7.211,12.889 7.211,13.877Q7.211,14.864 7.333,15.235Q7.455,15.605 7.333,15.975Q7.211,16.346 7.272,17.001Q7.333,17.655 14.864,17.679Q22.395,17.703 22.556,17.641Q22.717,17.580 22.741,14.123Q22.764,10.667 22.703,10.506Q22.642,10.345 15.481,10.338ZM33.012,10.339Q25.605,10.345 25.543,10.753Q25.481,11.160 25.482,14.247Q25.483,17.333 25.544,17.494Q25.605,17.655 28.815,17.679Q32.025,17.703 32.519,17.580Q33.012,17.457 36.469,17.457Q39.926,17.458 40.173,17.538Q40.420,17.618 40.587,17.476Q40.754,17.333 40.771,14.123Q40.789,10.914 40.772,10.790Q40.754,10.667 40.587,10.500Q40.420,10.333 33.012,10.339ZM15.111,20.215Q7.580,20.209 7.438,20.376Q7.296,20.543 7.375,20.790Q7.455,21.037 7.350,21.284Q7.246,21.531 7.228,21.901Q7.210,22.272 7.210,23.753Q7.211,25.235 7.316,25.481Q7.421,25.728 7.358,26.099Q7.295,26.469 7.438,27.124Q7.580,27.779 14.988,27.803Q22.395,27.826 22.556,27.765Q22.717,27.704 22.741,24.123Q22.764,20.543 22.703,20.382Q22.642,20.221 15.111,20.215ZM33.136,20.221Q25.605,20.221 25.438,20.753Q25.272,21.284 25.358,21.654Q25.444,22.025 25.357,22.148Q25.271,22.272 25.253,22.642Q25.235,23.012 25.235,24.741Q25.235,26.469 25.420,27.124Q25.605,27.779 27.951,27.803Q30.296,27.826 30.667,27.704Q31.037,27.581 33.877,27.581Q36.716,27.580 37.210,27.703Q37.704,27.826 38.938,27.826Q40.173,27.826 40.296,27.809Q40.420,27.791 40.587,27.624Q40.754,27.457 40.771,24.000Q40.789,20.543 40.728,20.382Q40.667,20.221 33.136,20.221ZM15.111,30.345Q7.580,30.345 7.501,31.123Q7.421,31.901 7.316,32.148Q7.211,32.395 7.211,33.012Q7.211,33.630 7.316,33.877Q7.421,34.123 7.439,34.494Q7.457,34.864 7.334,35.852Q7.211,36.840 7.357,37.210Q7.504,37.580 7.789,37.747Q8.074,37.915 12.765,37.932Q17.457,37.950 17.827,37.827Q18.198,37.705 20.296,37.704Q22.395,37.703 22.556,37.641Q22.717,37.580 22.741,34.123Q22.764,30.667 22.703,30.506Q22.642,30.345 15.111,30.345ZM33.136,30.339Q25.605,30.333 25.438,30.500Q25.271,30.667 25.253,31.037Q25.235,31.407 25.235,32.272Q25.235,33.136 25.358,33.506Q25.481,33.877 25.358,34.370Q25.235,34.864 25.235,35.852Q25.235,36.840 25.420,37.248Q25.605,37.656 32.889,37.679Q40.173,37.703 40.296,37.685Q40.420,37.667 40.587,37.500Q40.754,37.333 40.771,34.000Q40.789,30.667 40.728,30.506Q40.667,30.345 33.136,30.339Z"/></svg>
