<svg xmlns="http://www.w3.org/2000/svg" width="48" height="48" viewBox="0 0 48 48"><title>LaTeX Word Count</title><path fill="#1e5c45" fill-rule="evenodd" d="M33.254,4.149Q33.403,4.044 34.896,4.193Q36.388,4.342 36.739,4.694Q37.090,5.045 37.091,5.642Q37.091,6.239 36.985,6.388Q36.879,6.537 36.836,7.284Q36.792,8.030 36.687,8.179Q36.581,8.328 36.537,9.075Q36.494,9.821 36.388,9.970Q36.282,10.119 36.014,11.761Q35.745,13.403 35.851,13.552Q35.956,13.701 36.321,13.776Q36.687,13.850 37.134,13.701Q37.582,13.553 39.224,13.553Q40.866,13.553 41.015,13.575Q41.164,13.596 41.515,13.947Q41.867,14.299 41.888,16.388Q41.909,18.478 41.888,18.627Q41.867,18.776 41.583,19.075Q41.300,19.373 40.784,19.596Q40.269,19.820 38.478,19.821Q36.687,19.822 36.388,19.949Q36.090,20.076 35.298,20.172Q34.506,20.269 34.306,21.612Q34.106,22.955 34.000,23.104Q33.894,23.254 33.851,24.000Q33.807,24.746 33.701,24.896Q33.596,25.045 33.552,25.791Q33.509,26.537 33.382,26.836Q33.256,27.134 33.284,27.284Q33.312,27.433 33.507,27.507Q33.701,27.581 34.746,27.581Q35.791,27.581 36.239,27.433Q36.687,27.285 37.881,27.285Q39.075,27.285 39.522,27.462Q39.970,27.639 40.194,28.133Q40.417,28.627 40.417,30.269Q40.417,31.910 40.247,32.358Q40.077,32.806 39.874,33.008Q39.672,33.211 39.224,33.381Q38.776,33.551 37.134,33.552Q35.493,33.553 35.045,33.701Q34.597,33.850 33.403,33.879Q32.209,33.909 32.007,34.552Q31.805,35.194 31.761,35.940Q31.718,36.687 31.612,36.836Q31.506,36.985 31.313,38.478Q31.121,39.970 31.015,40.119Q30.909,40.269 30.866,41.015Q30.822,41.761 30.673,42.209Q30.523,42.657 30.172,43.008Q29.821,43.360 29.373,43.530Q28.925,43.700 27.433,43.679Q25.940,43.658 25.642,43.509Q25.343,43.360 24.992,43.008Q24.641,42.657 24.641,42.209Q24.641,41.761 24.746,41.612Q24.852,41.463 25.045,39.970Q25.238,38.478 25.343,38.328Q25.449,38.179 25.642,36.687Q25.835,35.194 25.940,35.045Q26.046,34.896 25.993,34.402Q25.940,33.909 25.642,33.902Q25.343,33.894 25.045,34.021Q24.746,34.148 21.612,34.171Q18.478,34.193 18.276,34.395Q18.074,34.597 17.881,35.791Q17.688,36.985 17.582,37.134Q17.476,37.284 17.433,37.881Q17.389,38.478 17.284,38.627Q17.178,38.776 17.134,39.373Q17.091,39.970 16.985,40.119Q16.879,40.269 16.836,40.866Q16.792,41.463 16.494,42.358Q16.196,43.254 15.993,43.456Q15.791,43.659 15.343,43.829Q14.896,43.999 13.701,43.999Q12.507,43.999 11.910,43.828Q11.313,43.658 10.962,43.306Q10.611,42.955 10.590,42.657Q10.568,42.358 10.695,42.060Q10.822,41.761 10.866,41.313Q10.909,40.866 11.015,40.716Q11.121,40.567 11.164,39.821Q11.208,39.075 11.313,38.925Q11.419,38.776 11.463,38.179Q11.506,37.582 11.612,37.433Q11.718,37.284 11.761,36.687Q11.805,36.090 11.910,35.940Q12.016,35.791 12.009,35.194Q12.001,34.597 11.807,34.523Q11.612,34.449 10.567,34.449Q9.522,34.449 9.224,34.576Q8.925,34.703 8.328,34.724Q7.731,34.745 7.216,34.522Q6.700,34.299 6.566,34.149Q6.432,34.000 6.312,33.552Q6.193,33.104 6.290,32.806Q6.387,32.507 6.409,31.164Q6.432,29.821 6.715,29.373Q6.999,28.925 7.365,28.723Q7.731,28.521 9.224,28.499Q10.716,28.477 11.015,28.350Q11.313,28.223 12.404,28.126Q13.494,28.030 14.090,24.597Q14.686,21.164 14.492,21.090Q14.299,21.017 12.060,21.015Q9.821,21.014 9.672,20.992Q9.522,20.971 9.299,20.769Q9.075,20.567 8.777,19.970Q8.480,19.373 8.627,18.925Q8.775,18.478 8.797,17.284Q8.820,16.090 8.969,15.791Q9.117,15.493 9.618,15.141Q10.119,14.790 12.507,14.767Q14.896,14.745 15.389,14.522Q15.882,14.299 16.039,13.851Q16.195,13.403 16.239,12.657Q16.282,11.910 16.409,11.612Q16.536,11.313 16.559,10.567Q16.581,9.821 16.687,9.672Q16.792,9.522 16.836,8.925Q16.879,8.328 16.985,8.179Q17.091,8.030 17.134,7.284Q17.178,6.537 17.380,6.022Q17.582,5.506 18.030,5.073Q18.478,4.641 18.627,4.619Q18.776,4.598 20.418,4.619Q22.060,4.641 22.358,4.796Q22.657,4.952 22.859,5.297Q23.061,5.642 22.912,6.985Q22.762,8.328 22.657,8.478Q22.551,8.627 22.358,10.119Q22.165,11.612 22.060,11.761Q21.954,11.910 21.910,12.657Q21.867,13.403 21.762,13.552Q21.657,13.701 21.657,13.851Q21.657,14.000 21.791,14.149Q21.924,14.299 22.141,14.372Q22.358,14.446 22.806,14.298Q23.254,14.150 26.388,14.128Q29.522,14.105 29.724,13.903Q29.926,13.701 30.119,12.358Q30.312,11.015 30.418,10.866Q30.524,10.716 30.567,9.970Q30.611,9.224 30.716,9.075Q30.822,8.925 30.866,8.179Q30.909,7.433 31.015,7.284Q31.121,7.134 31.164,6.537Q31.208,5.940 31.357,5.493Q31.507,5.045 31.858,4.694Q32.209,4.342 32.657,4.299Q33.104,4.255 33.254,4.149ZM24.448,20.441Q20.866,20.462 20.664,20.664Q20.462,20.866 20.418,21.313Q20.374,21.761 20.269,21.910Q20.163,22.060 19.723,24.896Q19.284,27.731 19.478,27.805Q19.672,27.879 23.403,27.851Q27.134,27.823 27.336,27.479Q27.539,27.134 27.582,26.537Q27.626,25.940 27.731,25.791Q27.837,25.642 27.881,24.896Q27.924,24.149 28.030,24.000Q28.136,23.851 28.179,23.104Q28.223,22.358 28.350,22.060Q28.477,21.761 28.448,21.164Q28.419,20.567 28.225,20.493Q28.030,20.419 24.448,20.441Z"/></svg>
